:FULLY-SPECIFIED
:FORCE-ALL-JOINTS-BE-3DOF
:DEGREES
1223
root -0.843739 14.6668 -17.0053 372.369 18.7976 363.097
lfemur 2.71279 0.257647 -9.68203
ltibia 29.5021 -0 0
lfoot 5.81765 31.6858 0
ltoes -27.2945 0 0
rfemur -56.269 -15.9198 20.211
rtibia 76.3908 -0 0
rfoot -20.0686 -20.6531 0.170301
rtoes 3.74311 -0 0
lowerback 12.7807 0.981571 -4.95323
upperback -3.88077 0.412784 -0.454604
thorax -11.4926 0.531012 2.20949
lowerneck -1.20692 -8.91295 -10.1857
upperneck 0.576954 -11.938 10.9942
head 1.64972 -5.91905 4.58634
lclavicle 8.13775e-16 -3.97569e-16 0
lhumerus -62.2301 -27.7773 114.56
lradius 92.6993 0 0
lwrist 27.6374 0 0
lhand -24.2162 25.0122 0
lfingers 7.12502 0 0
lthumb 2.26854 54.9799 0
rclavicle 8.13775e-16 -3.97569e-16 0
rhumerus 63.7215 3.07649 -26.9423
rradius 93.1278 0 0
rwrist -11.4378 0 0
rhand -32.0316 -33.5231 0
rfingers 7.12502 0 0
rthumb -5.27923 -63.4373 0
1224
root -0.871568 14.7097 -16.8237 372.27 17.9789 362.53
lfemur 1.50347 0.0508982 -9.72149
ltibia 31.9085 -0 0
lfoot 5.28228 30.645 0.098636
ltoes -27.0853 0 0
rfemur -55.2235 -15.2487 20.5721
rtibia 76.0702 -0 0
rfoot -20.3366 -21.0816 0.162278
rtoes 2.9453 -0 0
lowerback 12.5921 1.03858 -4.60243
upperback -3.91714 0.566941 -0.388959
thorax -11.4266 0.581288 2.04951
lowerneck -1.44784 -8.77136 -10.1029
upperneck 0.710645 -11.7383 11.0072
head 1.70325 -5.81135 4.57446
lclavicle 1.26446e-14 1.09083e-14 0
lhumerus -61.2957 -28.5371 115.166
lradius 91.7776 0 0
lwrist 24.4791 0 0
lhand -25.0285 24.6192 0
lfingers 7.12502 0 0
lthumb 1.48405 54.5937 0
rclavicle 1.26446e-14 1.09083e-14 0
rhumerus 63.7147 3.75409 -26.9597
rradius 93.3185 0 0
rwrist -11.646 0 0
rhand -32.0403 -33.7615 0
rfingers 7.12502 0 0
rthumb -5.28768 -63.6756 0
1225
root -0.895837 14.7513 -16.6457 372.147 17.2193 362.02
lfemur 0.294295 -0.156638 -9.75658
ltibia 34.3148 -0 0
lfoot 4.7452 29.6034 0.187527
ltoes -26.8761 0 0
rfemur -54.1769 -14.584 20.9447
rtibia 75.7495 -0 0
rfoot -20.6046 -21.5101 0.152251
rtoes 2.14749 -0 0
lowerback 12.3681 1.09665 -4.25266
upperback -3.86817 0.725161 -0.319606
thorax -11.2422 0.630565 1.89515
lowerneck -1.67461 -8.65364 -9.96979
upperneck 0.685533 -11.5597 10.9291
head 1.7014 -5.71633 4.53129
lclavicle -1.35507e-14 -2.68049e-14 0
lhumerus -60.1881 -29.4675 115.763
lradius 90.7519 0 0
lwrist 21.0804 0 0
lhand -26.0936 22.8726 0
lfingers 7.12502 0 0
lthumb 0.455345 52.8519 0
rclavicle -1.35507e-14 -2.68049e-14 0
rhumerus 63.8115 4.27494 -26.8406
rradius 93.4772 0 0
rwrist -11.9435 0 0
rhand -31.7442 -34.413 0
rfingers 7.12502 0 0
rthumb -5.00177 -64.3339 0
1226
root -0.917583 14.7968 -16.4691 371.989 16.5791 361.471
lfemur -0.914776 -0.364868 -9.78729
ltibia 36.7212 -0 0
lfoot 4.20659 28.5609 0.266636
ltoes -26.667 0 0
rfemur -53.1289 -13.9261 21.3287
rtibia 75.4288 -0 0
rfoot -20.8725 -21.9385 0.140221
rtoes 1.34969 -0 0
lowerback 12.2803 1.11667 -3.76686
upperback -3.97993 0.84171 -0.262421
thorax -11.313 0.657071 1.65739
lowerneck -1.31767 -8.46539 -9.82138
upperneck 0.520841 -11.3244 10.834
head 1.55612 -5.61108 4.51416
lclavicle 2.20527e-16 6.41081e-15 0
lhumerus -59.4179 -30.3361 116.507
lradius 89.766 0 0
lwrist 17.4439 0 0
lhand -26.5441 22.6972 0
lfingers 7.12502 0 0
lthumb 0.0202224 52.6769 0
rclavicle 2.20527e-16 6.41081e-15 0
rhumerus 63.7991 5.02881 -26.7634
rradius 93.641 0 0
rwrist -12.2784 0 0
rhand -31.6303 -34.5497 0
rfingers 7.12502 0 0
rthumb -4.89178 -64.4733 0
1227
root -0.933418 14.8341 -16.2978 371.781 15.9635 360.914
lfemur -2.12377 -0.573699 -9.8136
ltibia 39.1276 -0 0
lfoot 3.66663 27.5178 0.335929
ltoes -26.9555 0 0
rfemur -52.0793 -13.2751 21.724
rtibia 75.1082 -0 0
rfoot -21.1404 -22.3668 0.126187
rtoes 0.551876 -0 0
lowerback 12.1678 1.13507 -3.21538
upperback -3.9285 0.974192 -0.168663
thorax -11.1836 0.68288 1.42124
lowerneck -1.37643 -8.32623 -9.7133
upperneck 0.407903 -11.124 10.7363
head 1.4999 -5.51092 4.47936
lclavicle 1.39646e-14 2.1419e-14 0
lhumerus -58.2273 -31.3872 117.144
lradius 88.7687 0 0
lwrist 14.2574 0 0
lhand -26.4802 24.1453 0
lfingers 7.12502 0 0
lthumb 0.0819724 54.125 0
rclavicle 1.39646e-14 2.1419e-14 0
rhumerus 64.0142 5.47737 -26.6157
rradius 93.7449 0 0
rwrist -12.8372 0 0
rhand -31.1938 -34.4559 0
rfingers 7.12502 0 0
rthumb -4.47029 -64.3887 0
1228
root -0.94534 14.8652 -16.1299 371.59 15.4116 360.45
lfemur -3.33272 -0.783039 -9.83549
ltibia 41.534 -0 0
lfoot 3.12549 26.474 0.395378
ltoes -27.244 0 0
rfemur -51.0279 -12.6312 22.1303
rtibia 74.7875 -0 0
rfoot -21.4081 -22.7951 0.110152
rtoes -0.245933 0 0
lowerback 12.1196 1.13454 -2.68019
upperback -3.91438 1.07139 -0.10031
thorax -11.1316 0.693962 1.17327
lowerneck -1.34762 -8.16195 -9.64029
upperneck 0.285209 -10.8971 10.6857
head 1.42901 -5.39973 4.46919
lclavicle 4.14839e-14 -5.46658e-15 0
lhumerus -57.0932 -32.5426 117.887
lradius 87.5166 0 0
lwrist 10.7694 0 0
lhand -27.0524 24.0712 0
lfingers 7.12502 0 0
lthumb -0.470672 54.0504 0
rclavicle 4.14839e-14 -5.46658e-15 0
rhumerus 64.2455 5.98369 -26.4904
rradius 93.926 0 0
rwrist -13.6959 0 0
rhand -30.4972 -34.529 0
rfingers 7.12502 0 0
rthumb -3.79764 -64.4749 0
1229
root -0.951591 14.8919 -15.9638 371.469 14.7835 360.028
lfemur -4.54166 -0.992795 -9.85296
ltibia 43.9404 -0 0
lfoot 2.58336 25.4297 0.444958
ltoes -27.5325 0 0
rfemur -49.9744 -11.9947 22.5477
rtibia 74.4668 -0 0
rfoot -21.6757 -23.2233 0.0921163
rtoes -1.04374 0 0
lowerback 11.9814 1.15439 -2.18725
upperback -3.89818 1.19247 -0.0143693
thorax -11.025 0.720177 0.964647
lowerneck -1.41673 -8.00637 -9.444
upperneck 0.294299 -10.679 10.4106
head 1.39432 -5.29071 4.36502
lclavicle -3.00351e-14 -1.91827e-14 0
lhumerus -55.7666 -33.794 118.612
lradius 86.2312 0 0
lwrist 7.76891 0 0
lhand -27.8857 24.1663 0
lfingers 7.12502 0 0
lthumb -1.27553 54.1423 0
rclavicle -3.00351e-14 -1.91827e-14 0
rhumerus 64.5547 6.5026 -26.3839
rradius 94.216 0 0
rwrist -14.9066 0 0
rhand -29.3751 -35.274 0
rfingers 7.12502 0 0
rthumb -2.71394 -65.2365 0
1230
root -0.953158 14.9143 -15.7997 371.236 14.2105 359.595
lfemur -5.75062 -1.20287 -9.86601
ltibia 46.3467 -0 0
lfoot 2.04041 24.385 0.484646
ltoes -27.821 0 0
rfemur -48.9186 -11.3658 22.976
rtibia 74.1461 -0 0
rfoot -21.9431 -23.6514 0.0720816
rtoes -1.84155 0 0
lowerback 11.9229 1.16872 -1.63527
upperback -3.84452 1.31579 0.104342
thorax -10.9222 0.745058 0.757189
lowerneck -1.43379 -7.81017 -9.25668
upperneck 0.221067 -10.4047 10.1026
head 1.32115 -5.15577 4.25891
lclavicle 1.6114e-14 -1.54307e-14 0
lhumerus -54.3328 -35.145 119.405
lradius 84.7979 0 0
lwrist 4.71872 0 0
lhand -29.0963 24.0114 0
lfingers 7.12502 0 0
lthumb -2.4447 53.9771 0
rclavicle 1.6114e-14 -1.54307e-14 0
rhumerus 64.9094 7.0492 -26.2722
rradius 94.3437 0 0
rwrist -15.9752 0 0
rhand -28.341 -35.4682 0
rfingers 7.12502 0 0
rthumb -1.71522 -65.4411 0
1231
root -0.953919 14.9353 -15.635 371.02 13.5888 359.283
lfemur -6.95964 -1.41318 -9.87462
ltibia 48.7531 -0 0
lfoot 1.49682 23.3399 0.514428
ltoes -28.1095 0 0
rfemur -47.8603 -10.7448 23.4151
rtibia 73.8255 -0 0
rfoot -22.2104 -24.0794 0.0500496
rtoes -2.63936 0 0
lowerback 11.9262 1.19723 -1.23674
upperback -3.80293 1.42959 0.207756
thorax -10.8723 0.776045 0.620577
lowerneck -1.51922 -7.62598 -9.06303
upperneck 0.332896 -10.1536 9.80585
head 1.31749 -5.02942 4.14657
lclavicle -2.73065e-14 -1.84249e-14 0
lhumerus -52.8082 -36.6017 120.172
lradius 83.2836 0 0
lwrist 1.53065 0 0
lhand -30.5449 24.6257 0
lfingers 7.12502 0 0
lthumb -3.84369 54.5707 0
rclavicle -2.73065e-14 -1.84249e-14 0
rhumerus 65.3214 7.63141 -26.1557
rradius 94.3351 0 0
rwrist -17.1445 0 0
rhand -27.7064 -34.8265 0
rfingers 7.12502 0 0
rthumb -1.1023 -64.8034 0
